<svg xmlns="http://www.w3.org/2000/svg" fill="#303030" viewBox="23 252 600 143"><path d="M224 291.3c-3-2.9-6.1-5-9.4-6.4-3.3-1.4-7.3-2.1-11.7-2.1-5.1 0-9.8 1-14.1 2.9-4.3 1.9-8.1 4.6-11.2 8-3.1 3.4-5.6 7.5-7.4 12.2-1.8 4.7-2.7 9.8-2.7 15.3 0 5.7.9 10.8 2.6 15.5 1.8 4.7 4.2 8.8 7.4 12.2s7 6.1 11.4 8c4.4 1.9 9.2 2.9 14.5 2.9 5 0 9.1-.8 12.5-2.4 3.4-1.6 6.5-4.1 9.4-7.7v7.6h20.3V254.2H224v37.1h-.1Zm-4 43.1c-3.4 3.5-7.8 5.2-13.2 5.2-2.6 0-5-.5-7.2-1.4-2.2-.9-4.1-2.2-5.7-3.8-1.6-1.6-2.8-3.6-3.7-5.8-.9-2.3-1.4-4.7-1.4-7.4 0-2.6.5-5 1.4-7.3.9-2.3 2.2-4.2 3.8-5.8 1.6-1.6 3.6-2.8 5.8-3.7 2.2-.9 4.7-1.4 7.4-1.4 2.6 0 5 .5 7.2 1.4 2.2.9 4.1 2.2 5.7 3.8 1.6 1.6 2.9 3.6 3.8 5.7.9 2.2 1.4 4.5 1.4 7.1-.2 5.4-1.9 9.9-5.3 13.4Zm102.2-27.7c-1.9-4.8-4.5-8.9-7.9-12.4-3.4-3.5-7.4-6.2-12-8.3-4.6-2-9.6-3-14.9-3-5.1 0-10 1-14.5 3s-8.4 4.7-11.8 8.2c-3.3 3.4-6 7.5-7.9 12.2-1.9 4.7-2.9 9.7-2.9 15.1 0 5.3 1 10.3 2.9 15 1.9 4.7 4.6 8.7 8 12.1 3.4 3.4 7.9 6.4 11.9 8.1 5 2.3 9.5 2.9 14.7 2.9 7.6 0 14.5-2.2 20.6-6.6 5.8-4.2 10.4-9.9 13.7-17.2h-22.2999c-2.3001 2.2-4.4001 3.7-6.3001 4.4-1.9.8-4.2 1.2-6.9 1.2-4.3 0-7.9-1.2-10.7-3.7-2.9-2.4-4.5-5.7-5-9.7h53.5001c1.1999-7.2.5999-14.4-2.2001-21.3Zm-50.7 7.1c.8-4 2.7-7.1 5.5-9.3 2.8-2.1 6.3-3.2 10.5-3.2s7.7 1.2 10.6 3.4c2.9 2.3 4.7 5.3 5.5 9h-32.1v.1Zm-122.1-56.7c-18.2-10.6-41.5-4.3-52 14-.6 1-1.1 2.1-1.6 3.2-3.3-7.2-8.7-13.2-15.6-17.2-18.2-10.6-41.5-4.3-52 14-10.5 18.4-4.3 41.8 13.9 52.4 5.2 3 10.7 4.6 16.3 5l-16.6 28.8h24.8L94 309.4c.6-1 1.1-2.1 1.6-3.2 3.3 7.2 8.7 13.2 15.6 17.2 5.2 3 10.7 4.6 16.3 5L111 357.3h24.8l27.5-47.9c10.4-18.3 4.2-41.7-14-52.3ZM76.1 299c-4.8 8.4-15.4 11.2-23.8 6.4-8.3-4.8-11.2-15.5-6.4-23.9s15.4-11.2 23.8-6.4c8.4 4.9 11.2 15.6 6.4 23.9Zm69.2 0c-4.8 8.4-15.4 11.2-23.8 6.4-8.3-4.8-11.2-15.5-6.4-23.9 4.8-8.4 15.4-11.2 23.8-6.4 8.4 4.9 11.2 15.6 6.4 23.9Zm327.2 44.3c-7.2-1.2-15.5 1.2-24.2-.2s-8.5-4.8-6.4-6.5c19.7 7.5 43.8-2 44-24.9 0-8.4-3-13.7-5.3-16.2 1.8-3.5 3.9-5.2 8.3-6.3l-9-15.6c-8.1.7-13.5 5.7-15.9 10.9-4.8-2-14.6-2.2-22.5.6-3.8 1.3-7.3 3.3-10.3 5.9-2.9 2.5-5.2 5.6-6.7 9.1-1.7 3.7-2.4 7.6-2.4 11.6 0 5.5 1.8 12 4.9 16.4-8.6 8.5-8.1 21.2.8 29.2-.9.7-1.8 1.5-2.6 2.4-8 8.8-4.2 21 5 27.4 11.7 8.4 32.5 8.9 45.2 3.2 22.3-9.2 23.1-42.6-2.9-47Zm-18.4-44c6.5 0 11.8 5.3 11.8 11.8s-5.3 11.8-11.8 11.8-11.8-5.3-11.8-11.8 5.3-11.8 11.8-11.8ZM469 372c-2.4 3.3-7.1 4.5-11 4.7-4.6.2-10.8-.8-13.9-4.6-3-3.6-2.3-8.6 1.8-11.1 1.1-.7 2.4-1.2 3.7-1.3h10.6c4.6 0 10.5 1.3 10.5 7.1.1 1.8-.6 3.8-1.7 5.2Z"/><path d="M494.2 357.3v-.1h-.1l.1.1Zm64.5-58.3c-.5-1.6-1.2-3.2-2.1-4.6-.9-1.4-2.1-2.8-3.5-4.1-2.3-2.3-5.1-4.1-8.4-5.4-3.3-1.3-6.9-1.9-10.7-1.9-4.6 0-8.3.8-11.3 2.4-3 1.6-5.7 4.2-8.2 7.7v-7.6h-20.3v71.8h21.4v-40.1c0-9.4 4-14.1 12.1-14.1 3.9 0 6.7 1.2 8.5 3.6 1.8 2.4 2.6 6.2 2.6 11.3v39.2h21.4v-44.9c0-2.9-.1-5.4-.3-7.5-.3-2.2-.6-4.1-1.2-5.8Zm41.7 14.5c-9.9-2.6-13.4-4.5-13.4-8.4 0-2.7 2.6-4.8 6.2-4.8 3.5 0 6.4 1.3 6.6 5.4h21c-1-14-12-22.5-27.4-22.5-14.4 0-27.7 9.1-27.7 23.3 0 8.4 4.8 15.5 22.8 21 10.7 3.4 13.1 5.4 13.1 9.4 0 3.3-3.7 5.5-7.5 5.5-4.3 0-7.5-2.1-8.1-6.6h-21.3c1.5 14.6 13 23.7 29.1 23.7 16.2 0 29.1-9.4 29.1-24.4.1-10.3-5.4-17.1-22.5-21.6Zm-197.9-61.4c-7.1 0-12.8 5.8-12.8 12.9s5.7 12.9 12.8 12.9c7.1 0 12.8-5.8 12.8-12.9 0-7.1-5.7-12.9-12.8-12.9Zm-38.9 61.4c-9.9-2.6-13.4-4.5-13.4-8.4 0-2.7 2.6-4.8 6.2-4.8 3.5 0 6.4 1.3 6.6 5.4h21c-1-14-12-22.5-27.4-22.5-14.4 0-27.7 9.2-27.7 23.3 0 8.4 4.8 15.5 22.8 21 10.7 3.3 13.1 5.4 13.1 9.4 0 3.3-3.7 5.5-7.5 5.5-4.2 0-7.5-2.1-8.1-6.6h-21.3c1.5 14.6 13 23.7 29.1 23.7 16.2 0 29.1-9.4 29.1-24.4 0-10.3-5.5-17.1-22.5-21.6Zm28.2-28h21.4v71.8h-21.4v-71.8Z"/></svg>
