<?xml version="1.0" encoding="UTF-8"?>
<svg id="Layer_1" data-name="Layer 1" xmlns="http://www.w3.org/2000/svg" width="44.57" height="44.57" viewBox="0 0 44.57 44.57">
  <defs>
    <style>
      .cls-1 {
        fill: #f16925;
      }
    </style>
  </defs>
  <path id="logo" class="cls-1" d="M22.29,4.46c9.83,0,17.83,8,17.83,17.83s-8,17.83-17.83,17.83S4.46,32.12,4.46,22.29,12.46,4.46,22.29,4.46Zm0-4.46C9.98,0,0,9.98,0,22.29s9.98,22.29,22.29,22.29,22.29-9.98,22.29-22.29S34.6,0,22.29,0Zm0,13.37c4.92,0,8.91,4,8.91,8.91s-4,8.91-8.91,8.91-8.91-4-8.91-8.91,4-8.91,8.91-8.91Zm0-4.46c-7.39,0-13.37,5.99-13.37,13.37s5.99,13.37,13.37,13.37,13.37-5.99,13.37-13.37-5.99-13.37-13.37-13.37Zm0,8.91c-2.46,0-4.46,2-4.46,4.46s1.99,4.46,4.46,4.46,4.46-2,4.46-4.46-1.99-4.46-4.46-4.46Z"/>
</svg>