<?xml version="1.0" encoding="utf-8"?>
<!-- Generator: Adobe Illustrator 27.0.0, SVG Export Plug-In . SVG Version: 6.00 Build 0)  -->
<svg version="1.1" id="Layer_1" xmlns="http://www.w3.org/2000/svg" xmlns:xlink="http://www.w3.org/1999/xlink" x="0px" y="0px"
	 viewBox="0 0 272 170" style="enable-background:new 0 0 272 170;" xml:space="preserve">
<style type="text/css">
	.st0{fill:#FFFFFF;}
</style>
<path class="st0" d="M249.3,22.7H170V0h79.3V22.7z M268.9,136c-5,14.7-23,34-57.8,34S148,150.4,148,105.7s26.3-67.1,61.9-67.1
	s56.3,20.2,60.9,50.2c0.9,5.7,1.2,13.5,1.1,24.3h-91c1.5,36.4,39.5,37.5,52,23H268.9L268.9,136z M181.8,90.7h56.3
	c-1.2-17.5-12.9-25.2-28.1-25.2C193.4,65.5,184.2,74.2,181.8,90.7z M73.3,169.9H0V0.2h78.8c62.1,0.9,63.2,61.7,30.8,78.3
	C148.8,92.8,150.2,169.8,73.3,169.9L73.3,169.9z M34,68h40.6c28.4,0,32.9-34-3.5-34H34V68z M72.4,102H34v34.2h37.9
	C106.5,136.2,104.4,102,72.4,102z"/>
</svg>
