<?xml version="1.0" encoding="utf-8"?>
<!-- Generator: Adobe Illustrator 27.0.0, SVG Export Plug-In . SVG Version: 6.00 Build 0)  -->
<svg version="1.1" id="Layer_1" xmlns="http://www.w3.org/2000/svg" xmlns:xlink="http://www.w3.org/1999/xlink" x="0px" y="0px"
	 viewBox="0 0 350.8 170" style="enable-background:new 0 0 350.8 170;" xml:space="preserve">
<style type="text/css">
	.st0{fill:#FFFFFF;}
</style>
<path class="st0" d="M316.7,62c-4.7-4.6-9.6-7.9-14.8-10.1c-5.2-2.2-11.5-3.3-18.4-3.3c-8,0-15.4,1.6-22.2,4.6s-12.8,7.3-17.7,12.6
	c-4.9,5.4-8.8,11.8-11.7,19.2c-2.8,7.4-4.2,15.4-4.2,24.1s1.4,17,4.1,24.4c2.8,7.4,6.6,13.9,11.7,19.2c5,5.4,11,9.6,18,12.6
	c6.9,3,14.5,4.6,22.8,4.6c7.9,0,14.4-1.3,19.7-3.8c5.4-2.5,10.2-6.5,14.8-12.1v12h32V3.6h-34V62L316.7,62z M310.4,130
	c-5.4,5.5-12.3,8.2-20.8,8.2c-4.1,0-7.9-0.8-11.3-2.2c-3.5-1.4-6.5-3.5-9-6c-2.5-2.5-4.4-5.7-5.8-9.1c-1.4-3.6-2.2-7.4-2.2-11.7
	c0-4.2,0.8-7.9,2.2-11.5c1.4-3.6,3.5-6.6,6-9.1c2.5-2.5,5.7-4.4,9.1-5.8c3.5-1.4,7.4-2.2,11.7-2.2c4.2,0,7.9,0.8,11.3,2.2
	c3.5,1.4,6.5,3.5,9,6c2.5,2.5,4.6,5.7,6,9c1.4,3.5,2.2,7.1,2.2,11.2C318.4,117.4,315.8,124.5,310.4,130L310.4,130L310.4,130z
	 M199.1,8.1c-28.7-16.7-65.4-6.8-82,22.1c-1,1.6-1.7,3.3-2.5,5C109.4,23.9,100.9,14.4,90,8.1C61.3-8.6,24.6,1.3,8,30.2
	c-16.5,29-6.8,65.9,21.9,82.6c8.2,4.7,16.9,7.3,25.7,7.9l-26.2,45.4h39.1l43.2-75.5c1-1.6,1.7-3.3,2.5-5
	c5.2,11.3,13.7,20.8,24.6,27.1c8.2,4.7,16.9,7.3,25.7,7.9l-26,45.6h39.1L221,90.6c16.4-28.8,6.6-65.7-22.1-82.4L199.1,8.1L199.1,8.1
	z M83.6,74.2C76,87.4,59.3,91.8,46,84.3C33,76.7,28.4,59.8,36,46.6s24.3-17.7,37.5-10.1C86.7,44.2,91.1,61.1,83.6,74.2z M192.7,74.2
	c-7.6,13.2-24.3,17.7-37.5,10.1C142,76.7,137.5,59.8,145,46.6c7.6-13.2,24.3-17.7,37.5-10.1C195.8,44.2,200.2,61.1,192.7,74.2
	C192.7,74.2,192.7,74.2,192.7,74.2z"/>
</svg>
